<?xml version="1.0" encoding="iso-8859-1"?>
<!-- Uploaded to: SVG Repo, www.svgrepo.com, Generator: SVG Repo Mixer Tools -->
<svg height="800px" width="800px" version="1.1" id="Layer_1" xmlns="http://www.w3.org/2000/svg" xmlns:xlink="http://www.w3.org/1999/xlink" 
	 viewBox="0 0 512 512" xml:space="preserve">
<g transform="translate(1 1)">
	<path style="fill:#FFE100;" d="M502.467,255c0,136.533-110.933,247.467-247.467,247.467S7.533,391.533,7.533,255
		S118.467,7.533,255,7.533S502.467,118.467,502.467,255"/>
	<path style="fill:#FFA800;" d="M255,7.533c-4.267,0-8.533,0-12.8,0C372.76,14.36,476.867,122.733,476.867,255
		S372.76,495.64,242.2,502.467c4.267,0,8.533,0,12.8,0c136.533,0,247.467-110.933,247.467-247.467S391.533,7.533,255,7.533"/>
	<path style="fill:#FFFFFF;" d="M255,7.533c4.267,0,8.533,0,12.8,0C137.24,14.36,33.133,122.733,33.133,255
		S137.24,495.64,267.8,502.467c-4.267,0-8.533,0-12.8,0C118.467,502.467,7.533,391.533,7.533,255S118.467,7.533,255,7.533"/>
	<g>
		<path style="fill:#63D3FD;" d="M203.8,169.667c0,23.893-11.093,42.667-25.6,42.667s-25.6-18.773-25.6-42.667
			S163.693,127,178.2,127S203.8,145.773,203.8,169.667"/>
		<path style="fill:#63D3FD;" d="M357.4,169.667c0,23.893-11.093,42.667-25.6,42.667s-25.6-18.773-25.6-42.667
			S317.293,127,331.8,127S357.4,145.773,357.4,169.667"/>
		<path style="fill:#63D3FD;" d="M452.12,331.8L452.12,331.8c-10.24,11.947-26.453,11.947-35.84,0
			c-10.24-11.947-10.24-29.867,0-45.227L434.2,255l17.92,31.573C462.36,304.493,462.36,319.853,452.12,331.8"/>
		<path style="fill:#63D3FD;" d="M102.253,109.933L102.253,109.933c-9.387,11.093-26.453,11.093-35.84,0s-10.24-29.867,0-45.227
			l17.92-31.573l17.92,31.573C112.493,82.627,112.493,97.987,102.253,109.933"/>
	</g>
	<path d="M202.093,374.467c-4.267,0-7.68,0-11.947-0.853c-29.013-4.267-52.907-22.187-62.293-47.787
		c-1.707-4.267,0.853-9.387,5.12-11.093c4.267-1.707,9.387,0.853,11.093,5.12c7.68,19.627,25.6,33.28,48.64,36.693
		c22.187,3.413,43.52-5.12,56.32-22.187c16.213-20.48,41.813-31.573,71.68-28.16c28.16,2.56,52.907,21.333,62.293,47.787
		c1.707,4.267-0.853,9.387-5.12,11.093c-4.267,1.707-9.387-0.853-11.093-5.12c-7.68-19.627-26.453-34.133-48.64-36.693
		c-23.893-2.56-44.373,5.973-56.32,22.187C247.32,364.227,225.987,374.467,202.093,374.467z"/>
	<path d="M178.2,220.867c-18.773,0-34.133-22.187-34.133-51.2s15.36-51.2,34.133-51.2s34.133,22.187,34.133,51.2
		S196.973,220.867,178.2,220.867z M178.2,135.533c-7.68,0-17.067,14.507-17.067,34.133S170.52,203.8,178.2,203.8
		s17.067-14.507,17.067-34.133S185.88,135.533,178.2,135.533z"/>
	<path d="M331.8,220.867c-18.773,0-34.133-22.187-34.133-51.2s15.36-51.2,34.133-51.2s34.133,22.187,34.133,51.2
		S350.573,220.867,331.8,220.867z M331.8,135.533c-7.68,0-17.067,14.507-17.067,34.133S324.12,203.8,331.8,203.8
		s17.067-14.507,17.067-34.133S339.48,135.533,331.8,135.533z"/>
	<path d="M434.2,348.867c-9.387,0-17.92-4.267-24.747-11.947c-12.8-14.507-12.8-36.693-0.853-55.467l17.92-30.72
		c1.707-2.56,4.267-4.267,7.68-4.267l0,0c3.413,0,5.973,1.707,7.68,4.267l17.92,31.573c15.36,27.307,7.68,45.227-0.853,55.467
		C452.12,344.6,443.587,348.867,434.2,348.867z M434.2,272.067l-11.093,18.773c-7.68,12.8-8.533,27.307-0.853,35.84
		c6.827,7.68,17.067,7.68,23.04,0c7.68-8.533,6.827-20.48-0.853-35.84L434.2,272.067z"/>
	<path d="M84.333,127c-9.387,0-17.92-4.267-24.747-11.947c-12.8-14.507-12.8-35.84-0.853-55.467l17.92-30.72
		c1.707-2.56,4.267-4.267,7.68-4.267l0,0c3.413,0,5.973,1.707,7.68,4.267l17.92,31.573c15.36,27.307,7.68,45.227-0.853,55.467
		C102.253,122.733,93.72,127,84.333,127z M84.333,50.2L73.24,68.973c-7.68,12.8-8.533,27.307-0.853,35.84
		c5.973,7.68,17.067,7.68,23.04,0c7.68-8.533,6.827-20.48-0.853-35.84L84.333,50.2z"/>
	<path d="M255,511C114.2,511-1,395.8-1,255c0-58.027,18.773-113.493,55.467-158.72c1.707-2.56,5.12-3.413,7.68-3.413
		c3.413,0.853,5.973,2.56,6.827,5.12c0.853,2.56,2.56,4.267,3.413,5.973c5.973,7.68,17.067,7.68,23.04,0
		c2.56-3.413,11.093-12.8-0.853-35.84l-1.707-2.56c-1.707-3.413-0.853-8.533,1.707-11.093C141.507,18.627,196.12-1,255-1
		c140.8,0,256,115.2,256,256S395.8,511,255,511z M60.44,115.907C31.427,156.867,16.067,204.653,16.067,255
		c0,131.413,107.52,238.933,238.933,238.933S493.933,386.413,493.933,255S386.413,16.067,255,16.067
		c-52.053,0-101.547,16.213-143.36,47.787c11.947,25.6,5.12,41.813-2.56,51.2C102.253,122.733,93.72,127,84.333,127
		S67.267,123.587,60.44,115.907z"/>
</g>
</svg>